<svg height="480pt" viewBox="0 0 480 480.01584" width="480pt" xmlns="http://www.w3.org/2000/svg"><path d="m8 432.007812 424-424 40 40-424 424zm0 0" fill="#d6d6d4"/><path d="m148 292.007812 20.003906-20.003906 40 40-20.003906 20.003906zm0 0" fill="#c7c7c5"/><path d="m414.0625 174.0625-108.113281-108.109375c-6.363281-6.367187-9.941407-15-9.941407-24-.007812-18.75 15.195313-33.949219 33.941407-33.945313 9.003906 0 17.636719 3.578126 24 9.945313l108.113281 108.109375c6.367188 6.367188 9.941406 15 9.945312 24 .003907 18.75-15.195312 33.949219-33.945312 33.945312-9.003906 0-17.636719-3.578124-24-9.945312zm0 0" fill="#348fd9"/><path d="m414.0625 270.0625-204.113281-204.109375c-6.363281-6.367187-9.941407-15-9.941407-24-.007812-18.75 15.195313-33.949219 33.941407-33.945313 9.003906 0 17.636719 3.578126 24 9.945313l204.113281 204.109375c6.367188 6.367188 9.941406 15 9.945312 24 .003907 18.75-15.195312 33.949219-33.945312 33.945312-9.003906 0-17.636719-3.578124-24-9.945312zm0 0" fill="#348fd9"/><path d="m462.0625 222.0625-40-40c8.761719 8.539062 12.25 21.128906 9.136719 32.957031s-12.351563 21.066407-24.179688 24.183594c-11.832031 3.113281-24.421875-.378906-32.957031-9.140625l40 40c8.535156 8.761719 21.125 12.253906 32.957031 9.140625 11.828125-3.117187 21.066407-12.355469 24.179688-24.183594s-.375-24.417969-9.136719-32.957031zm0 0" fill="#3086cd"/><path d="m65.949219 305.953125 108.113281 108.109375c6.367188 6.367188 9.941406 15 9.945312 24 .003907 18.75-15.195312 33.949219-33.945312 33.945312-9.003906 0-17.636719-3.578124-24-9.945312l-108.113281-108.109375c-6.363281-6.367187-9.941407-15-9.941407-24-.007812-18.75 15.195313-33.949219 33.941407-33.945313 9.003906 0 17.636719 3.578126 24 9.945313zm0 0" fill="#348fd9"/><path d="m65.949219 209.953125 204.113281 204.109375c6.367188 6.367188 9.941406 15 9.945312 24 .003907 18.75-15.195312 33.949219-33.945312 33.945312-9.003906 0-17.636719-3.578124-24-9.945312l-204.113281-204.109375c-6.363281-6.367187-9.941407-15-9.941407-24-.007812-18.75 15.195313-33.949219 33.941407-33.945313 9.003906 0 17.636719 3.578126 24 9.945313zm0 0" fill="#348fd9"/><g fill="#3086cd"><path d="m462.0625 126.0625-40-40c8.761719 8.539062 12.25 21.128906 9.136719 32.957031s-12.351563 21.066407-24.179688 24.183594c-11.832031 3.113281-24.421875-.378906-32.957031-9.140625l40 40c8.535156 8.761719 21.125 12.253906 32.957031 9.140625 11.828125-3.117187 21.066407-12.355469 24.179688-24.183594s-.375-24.417969-9.136719-32.957031zm0 0"/><path d="m270.0625 414.0625-40-40c8.761719 8.539062 12.25 21.128906 9.136719 32.957031s-12.351563 21.066407-24.179688 24.183594c-11.832031 3.113281-24.421875-.378906-32.957031-9.140625l40 40c8.535156 8.761719 21.125 12.253906 32.957031 9.140625 11.828125-3.117187 21.066407-12.355469 24.179688-24.183594s-.375-24.417969-9.136719-32.957031zm0 0"/><path d="m174.0625 414.0625-40-40c8.761719 8.539062 12.25 21.128906 9.136719 32.957031s-12.351563 21.066407-24.179688 24.183594c-11.832031 3.113281-24.421875-.378906-32.957031-9.140625l40 40c8.535156 8.761719 21.125 12.253906 32.957031 9.140625 11.828125-3.117187 21.066407-12.355469 24.179688-24.183594s-.375-24.417969-9.136719-32.957031zm0 0"/></g><path d="m477.664062 42.351562-40-40c-3.125-3.121093-8.191406-3.121093-11.3125 0l-38.34375 38.34375-28.410156-28.414062c-11.347656-11.378906-28.21875-15.242188-43.386718-9.933594-15.167969 5.308594-25.949219 18.847656-27.726563 34.820313l-24.886719-24.886719c-16.378906-16.378906-42.933594-16.375-59.3125.007812-16.375 16.378907-16.371094 42.933594.007813 59.3125l76.402343 76.40625-132.6875 132.6875-76.402343-76.40625c-16.378907-16.378906-42.933594-16.375-59.3125.007813-16.375 16.378906-16.371094 42.933594.007812 59.3125l24.882813 24.878906c-15.976563 1.769531-29.519532 12.550781-34.832032 27.722657-5.308593 15.171874-1.441406 32.042968 9.941407 43.390624l28.402343 28.40625-38.34375 38.34375c-3.125 3.125-3.125 8.1875 0 11.3125l40 40c3.121094 3.121094 8.1875 3.121094 11.3125 0l38.34375-38.34375 28.40625 28.414063c11.347657 11.378906 28.21875 15.242187 43.386719 9.933594 15.167969-5.308594 25.949219-18.847657 27.726563-34.820313l24.886718 24.886719c16.382813 16.378906 42.9375 16.375 59.3125-.007813 16.375-16.378906 16.371094-42.933593-.007812-59.3125l-76.402344-76.40625 132.691406-132.6875 76.398438 76.40625c16.378906 16.378907 42.9375 16.375 59.3125-.007812 16.375-16.378906 16.371094-42.933594-.007812-59.3125l-24.878907-24.878906c15.972657-1.769532 29.515625-12.550782 34.828125-27.722656 5.308594-15.167969 1.441406-32.042969-9.941406-43.390626l-28.402344-28.40625 38.347656-38.34375c3.121094-3.125 3.121094-8.1875 0-11.3125zm-429.65625 418.34375-28.691406-28.6875 32.691406-32.6875 28.6875 28.6875zm102.054688 3.3125c-6.882812.015626-13.488281-2.714843-18.34375-7.59375l-108.121094-108.132812c-10.125-10.132812-10.121094-26.558594.011719-36.683594 10.132813-10.128906 26.558594-10.125 36.683594.011719l108.121093 108.125c7.417969 7.421875 9.632813 18.578125 5.617188 28.269531-4.019531 9.691406-13.476562 16.007813-23.96875 16.003906zm121.945312-25.9375c-.003906 10.496094-6.324218 19.953126-16.019531 23.96875-9.691406 4.015626-20.851562 1.796876-28.269531-5.625l-156.113281-156.125-48-48c-10.128907-10.132812-10.125-26.554687.003906-36.683593 10.132813-10.128907 26.554687-10.128907 36.683594.003906l204.121093 204.125c4.878907 4.851563 7.613282 11.457031 7.59375 18.335937zm-84-117.375-28.691406-28.6875 132.691406-132.6875 28.6875 28.6875zm276-74.625c-.003906 10.492188-6.328124 19.949219-16.019531 23.960938-9.695312 4.015625-20.851562 1.792969-28.269531-5.625l-204.121094-204.125c-9.933594-10.167969-9.835937-26.433594.214844-36.484375 10.054688-10.046875 26.320312-10.136719 36.480469-.195313l156.113281 156.125 48 48c4.886719 4.851563 7.621094 11.460938 7.601562 18.34375zm0-96c-.003906 10.492188-6.328124 19.949219-16.019531 23.960938-9.695312 4.015625-20.851562 1.792969-28.269531-5.625l-108.121094-108.125c-9.933594-10.167969-9.835937-26.433594.214844-36.484375 10.054688-10.046875 26.320312-10.136719 36.480469-.195313l108.121093 108.132813c4.878907 4.851563 7.613282 11.457031 7.59375 18.335937zm-36-69.375-28.691406-28.6875 32.691406-32.6875 28.6875 28.6875zm0 0"/></svg>