<?xml version="1.0" encoding="UTF-8"?>
<svg xmlns="http://www.w3.org/2000/svg" xmlns:xlink="http://www.w3.org/1999/xlink" width="512" height="512" viewBox="0 0 56 56" version="1.1"><!-- Generator: Sketch 51.3 (57544) - http://www.bohemiancoding.com/sketch --><title>015 - Third Eye</title><desc>Created with Sketch.</desc><defs/><g id="Page-1" stroke="none" stroke-width="1" fill="none" fill-rule="evenodd"><g id="015---Third-Eye" transform="translate(-1.000000, 0.000000)" fill="#000000" fill-rule="nonzero"><circle id="Oval" cx="29" cy="11" r="2"/><path d="M29,15 C26.8017496,15.0000539 25.0153878,13.2261965 25,11.028 C24.3532696,11.8840508 24.0023052,12.927117 24,14 C24.0000001,16.7614237 26.2385763,18.9999999 29,18.9999999 C31.7614237,18.9999999 33.9999999,16.7614237 34,14 C33.9976948,12.927117 33.6467304,11.8840508 33,11.028 C32.9846122,13.2261965 31.1982504,15.0000539 29,15 Z" id="Shape"/><path d="M35.708,12.01 C36.098675,13.3102891 36.098675,14.6967109 35.708,15.997 C36.4207879,15.3781076 37.0891076,14.7097879 37.708,13.997 C37.088409,13.2889093 36.4201161,12.6249603 35.708,12.01 Z" id="Shape"/><path d="M44.07,18.617 C43.9569613,20.0967051 43.7596411,21.568761 43.479,23.026 C43.2764593,24.005808 43.1533924,25.0003753 43.111,26 C44.020691,24.9825254 44.632718,23.7342533 44.88,22.392 C45.0898581,20.9224968 45.0625103,19.4288362 44.799,17.968 C44.5080962,18.1236399 44.2582578,18.3460612 44.07,18.617 Z" id="Shape"/><path d="M20.293,14 C20.9124498,14.7094675 21.580746,15.3747563 22.293,15.991 C21.902325,14.6907109 21.902325,13.3042891 22.293,12.004 C21.5803513,12.6216094 20.9120349,13.2885892 20.293,14 Z" id="Shape"/><path d="M16.825,43.879 C16.569,45.624 15.752,53.314 20.681,56 L37.319,56 C42.262,53.307 41.434,45.622 41.176,43.88 C40.776,43.643 40.406,43.403 40.076,43.174 L40.076,44.962 C40.076,45.5142847 39.6282847,45.962 39.076,45.962 C38.5237153,45.962 38.076,45.5142847 38.076,44.962 L38.076,39.918 C37.513,40.649 37.041,41.36 36.61,42.018 C35.236,44.133 34.048,45.958 31.015,45.958 L26.985,45.958 C23.952,45.958 22.764,44.133 21.39,42.018 C20.959,41.356 20.49,40.645 19.924,39.918 L19.924,44.962 C19.924,45.5142847 19.4762847,45.962 18.924,45.962 C18.3717153,45.962 17.924,45.5142847 17.924,44.962 L17.924,43.174 C17.594,43.4 17.222,43.643 16.825,43.879 Z" id="Shape"/><path d="M14.686,44.929 C14.1587348,45.1357996 13.6133892,45.2931431 13.057,45.399 C11.3750369,45.7763646 9.76747434,46.4306091 8.3,47.335 C6.885,48.135 5.45,48.906 4.014,49.673 C3.769,49.804 3.487,49.938 3.191,50.073 C2.39848438,50.3526649 1.68501796,50.8191622 1.111,51.433 C0.97298571,51.7780429 0.931167065,52.1540651 0.99,52.521 C0.996,52.69 1.002,52.859 1.001,53.027 L1.001,56 L17.486,56 C14.5,52.723 14.454,47.625 14.686,44.929 Z" id="Shape"/><path d="M54.811,50.077 C54.511,49.938 54.231,49.805 53.986,49.677 C52.552,48.91 51.116,48.142 49.701,47.339 C48.2334133,46.4334572 46.625495,45.7781916 44.943,45.4 C44.3866108,45.2941431 43.8412652,45.1367996 43.314,44.93 C43.546,47.63 43.504,52.724 40.514,56.001 L57,56.001 L57,54.223 C57,53.823 57,53.429 57,53.031 C57,52.863 57.005,52.694 57.012,52.531 C57.069819,52.163712 57.028033,51.7876378 56.891,51.442 C56.3170724,50.8268889 55.6037025,50.3587399 54.811,50.077 Z" id="Shape"/><path d="M14.889,25.994 C14.8460572,24.9964045 14.7229942,24.0038749 14.521,23.026 C14.240302,21.5684341 14.0429815,20.0960422 13.93,18.616 C13.7407241,18.3451389 13.4920632,18.1211048 13.203,17.961 C12.9365205,19.434371 12.9098434,20.9411193 13.124,22.423 C13.3827547,23.7496348 13.9922169,24.9827167 14.889,25.994 Z" id="Shape"/><path d="M42.107,10.537 C41.65,0.621 30.441,0.02 29.964,0 L27.992,0 C27.56,0.021 16.348,0.65 15.892,10.537 C15.567,17.584 16.078,20.404 16.492,22.669 C16.7488731,23.8823585 16.8868589,25.1178674 16.904,26.358 C16.904,27.022 16.875,27.671 16.846,28.309 C16.708,31.326 16.599,33.709 19.616,36.577 L19.634,36.595 C20.9517358,37.89478 22.1050186,39.3513284 23.068,40.932 C24.435,43.032 25.117,43.962 26.987,43.962 L31.017,43.962 C32.887,43.962 33.569,43.034 34.936,40.932 C35.8986964,39.3531923 37.0512913,37.8983436 38.368,36.6 L38.386,36.582 C41.403,33.715 41.294,31.331 41.156,28.314 C41.127,27.676 41.098,27.027 41.098,26.363 C41.1151411,25.1228674 41.2531269,23.8873585 41.51,22.674 C41.921,20.4 42.432,17.584 42.107,10.537 Z M35.364,6.222 L36.778,4.808 C37.0290745,4.54804342 37.4008779,4.4437874 37.7505073,4.53530284 C38.1001368,4.62681828 38.3731817,4.89986324 38.4646972,5.24949268 C38.5562126,5.59912211 38.4519566,5.97092553 38.192,6.222 L36.778,7.636 C36.3856211,8.01497221 35.7619152,8.00955237 35.3761814,7.62381858 C34.9904476,7.23808478 34.9850278,6.61437889 35.364,6.222 Z M28,2 C28,1.44771525 28.4477153,1 29,1 C29.5522847,1 30,1.44771525 30,2 L30,4 C30,4.55228475 29.5522847,5 29,5 C28.4477153,5 28,4.55228475 28,4 L28,2 Z M19.808,4.808 C20.1984999,4.41761806 20.8315001,4.41761806 21.222,4.808 L22.636,6.222 C22.8959566,6.47307447 23.0002126,6.84487789 22.9086972,7.19450732 C22.8171817,7.54413676 22.5441368,7.81718172 22.1945073,7.90869716 C21.8448779,8.0002126 21.4730745,7.89595658 21.222,7.636 L19.808,6.222 C19.4176181,5.83150015 19.4176181,5.19849985 19.808,4.808 Z M22.636,21.778 L21.222,23.192 C20.8296211,23.5709722 20.2059152,23.5655524 19.8201814,23.1798186 C19.4344476,22.7940848 19.4290278,22.1703789 19.808,21.778 L21.222,20.364 C21.4730745,20.1040434 21.8448779,19.9997874 22.1945073,20.0913028 C22.5441368,20.1828183 22.8171817,20.4558632 22.9086972,20.8054927 C23.0002126,21.1551221 22.8959566,21.5269255 22.636,21.778 Z M30,26 C30,26.5522847 29.5522847,27 29,27 C28.4477153,27 28,26.5522847 28,26 L28,24 C28,23.4477153 28.4477153,23 29,23 C29.5522847,23 30,23.4477153 30,24 L30,26 Z M38.192,23.192 C37.8015001,23.5823819 37.1684999,23.5823819 36.778,23.192 L35.364,21.778 C35.1040434,21.5269255 34.9997874,21.1551221 35.0913028,20.8054927 C35.1828183,20.4558632 35.4558632,20.1828183 35.8054927,20.0913028 C36.1551221,19.9997874 36.5269255,20.1040434 36.778,20.364 L38.192,21.778 C38.5823819,22.1684999 38.5823819,22.8015001 38.192,23.192 Z M39.8,14.6 C39.614,14.849 35.37,20.436 29.809,20.951 C29.2711406,21.0189984 28.7268594,21.0189984 28.189,20.951 C22.628,20.436 18.389,14.851 18.198,14.6 C17.9313333,14.2444444 17.9313333,13.7555556 18.198,13.4 C18.384,13.151 22.628,7.564 28.189,7.049 C28.7268594,6.98100156 29.2711406,6.98100156 29.809,7.049 C35.37,7.564 39.614,13.149 39.8,13.4 C40.0666667,13.7555556 40.0666667,14.2444444 39.8,14.6 Z" id="Shape"/></g></g></svg>
